<?xml version="1.0" standalone="no"?>
<!DOCTYPE svg PUBLIC "-//W3C//DTD SVG 20010904//EN"
 "http://www.w3.org/TR/2001/REC-SVG-20010904/DTD/svg10.dtd">
<svg version="1.0" xmlns="http://www.w3.org/2000/svg"
 width="1803.000000pt" height="1803.000000pt" viewBox="0 0 1803.000000 1803.000000"
 preserveAspectRatio="xMidYMid meet">
<metadata>
Created by potrace 1.11, written by Peter Selinger 2001-2013
</metadata>
<g transform="translate(0.000000,1803.000000) scale(0.100000,-0.100000)"
fill="#000000" stroke="none">
<path d="M8758 18025 c-2 -1 -50 -6 -108 -10 -58 -4 -107 -8 -110 -10 -3 -1
-32 -5 -65 -9 -33 -3 -98 -13 -145 -22 -47 -8 -94 -17 -105 -18 -11 -2 -50
-11 -86 -19 -37 -9 -78 -18 -90 -21 -58 -11 -274 -78 -374 -116 -61 -22 -114
-42 -120 -44 -44 -13 -200 -85 -335 -155 -752 -387 -1364 -1039 -1702 -1811
-74 -171 -159 -411 -183 -520 -2 -8 -10 -42 -18 -75 -9 -33 -18 -71 -21 -85
-9 -46 -25 -135 -31 -165 -2 -16 -7 -40 -9 -51 -4 -19 -17 -129 -31 -259 -22
-208 -27 -976 -6 -1071 32 -150 142 -293 282 -367 113 -60 118 -61 474 -64
369 -3 398 0 521 62 93 46 188 139 238 234 20 39 35 71 32 71 -3 0 2 17 10 37
10 23 17 79 20 152 8 252 15 318 50 491 148 721 654 1320 1344 1594 103 40
296 97 383 111 18 3 39 8 47 10 8 2 44 7 80 10 36 4 74 9 85 11 26 5 342 5
380 0 17 -3 55 -7 86 -10 205 -21 458 -99 672 -208 98 -50 329 -194 347 -217
3 -3 34 -31 70 -61 104 -88 217 -205 310 -323 8 -11 20 -25 25 -31 6 -7 15
-19 20 -28 6 -8 38 -58 73 -109 66 -99 186 -332 222 -434 12 -33 25 -69 30
-80 20 -44 83 -275 95 -345 3 -19 8 -42 10 -50 2 -8 7 -42 11 -75 3 -33 8 -63
10 -66 17 -28 24 -538 10 -718 -6 -79 -38 -282 -61 -396 -41 -201 -159 -493
-270 -665 -123 -192 -284 -369 -444 -490 -18 -14 -41 -33 -49 -42 -9 -10 -19
-18 -23 -18 -4 0 -43 -25 -88 -55 -45 -30 -83 -55 -86 -55 -3 0 -40 -19 -82
-43 -43 -23 -103 -53 -133 -66 -30 -13 -73 -31 -95 -41 -202 -89 -507 -173
-822 -225 -69 -11 -89 -14 -133 -20 -25 -3 -61 -7 -80 -10 -61 -8 -175 -18
-325 -30 -187 -14 -441 -18 -1570 -20 -858 -1 -1234 -5 -1266 -13 -222 -54
-387 -237 -417 -461 -4 -31 -7 -2304 -7 -5051 1 -4765 2 -4998 19 -5055 58
-196 204 -337 401 -389 54 -14 380 -16 3375 -13 3160 2 3317 3 3368 20 185 63
324 213 368 398 14 57 16 817 15 6939 0 3781 -2 6940 -5 7020 -5 152 -13 281
-21 340 -3 19 -7 55 -10 80 -7 53 -23 155 -30 190 -21 105 -30 147 -51 235
-27 106 -27 107 -75 255 -135 411 -397 882 -663 1191 -17 19 -53 61 -81 93
-70 81 -215 226 -310 310 -100 88 -93 83 -195 161 -47 36 -89 69 -95 73 -37
29 -236 159 -315 204 -227 133 -591 295 -755 338 -16 4 -71 19 -121 34 -50 15
-100 28 -110 31 -10 2 -57 12 -104 24 -121 28 -286 56 -401 66 -35 4 -75 9
-89 11 -27 6 -556 14 -562 9z"/>
</g>
</svg>
